<?xml version="1.0" encoding="UTF-8"?>
<!DOCTYPE svg PUBLIC "-//W3C//DTD SVG 1.1//EN" "http://www.w3.org/Graphics/SVG/1.1/DTD/svg11.dtd">
<!-- Creator: CorelDRAW 2021 (64 Bit) -->
<svg xmlns="http://www.w3.org/2000/svg" xml:space="preserve" width="117.475mm" height="42.7778mm" version="1.1" style="shape-rendering:geometricPrecision; text-rendering:geometricPrecision; image-rendering:optimizeQuality; fill-rule:evenodd; clip-rule:evenodd"
viewBox="0 0 11747.5 4277.78"
 xmlns:xlink="http://www.w3.org/1999/xlink"
 xmlns:xodm="http://www.corel.com/coreldraw/odm/2003">
 <defs>
  <style type="text/css">
   <![CDATA[
    .fil2 {fill:#FECA57}
    .fil0 {fill:#A5A5A5;fill-rule:nonzero}
    .fil1 {fill:#FECA57;fill-rule:nonzero}
   ]]>
  </style>
 </defs>
 <g id="Camada_x0020_1">
  <metadata id="CorelCorpID_0Corel-Layer"/>
  <g id="_2459933117888">
   <path class="fil0" d="M4109.18 368.3l56.77 0c49.57,0 88.06,-11.15 114.99,-33.37 27.21,-22.22 40.71,-53.72 40.71,-94.64 0,-23.54 -8.17,-41.47 -24.72,-54.28 -16.27,-12.6 -39.74,-18.9 -69.99,-18.9l-59.54 0 -58.29 201.12 0.07 0.07zm-412.28 492.24l244.6 -835.56 254.98 0c90.83,0 158.54,3.67 202.37,10.94 44.03,7.2 80.17,19.45 107.86,36.83 28.25,17.58 49.64,39.05 63.62,63.9 14.26,24.99 21.39,53.86 21.39,86.82 0,65.22 -18.07,116.86 -54.42,155.36 -36.42,38.49 -91.11,64.25 -164.15,77.4 41.75,7.62 72.56,20.01 91.87,37.04 19.39,17.24 29.01,40.36 29.01,69.3 0,22.02 -7.13,57.6 -21.12,106.27 -14.26,48.88 -21.39,86.47 -21.39,112.99 0,13.36 1.52,24.99 4.57,34.96 2.77,10.04 7.41,18.9 13.22,26.86l0 16.82 -280.18 0c-4.57,-6.44 -7.89,-13.85 -9.69,-22.22 -2.01,-8.31 -3.05,-18 -3.05,-28.73 0,-26.86 7.89,-66.46 23.95,-119.29 15.78,-52.62 23.68,-90.76 23.68,-114.3 0,-18.35 -8.17,-32.95 -24.92,-43.89 -16.55,-10.94 -38.91,-16.27 -66.67,-16.27l-67.16 0 -99 344.64 -269.24 0 -0.13 0.13zm823.52 0l244.6 -835.56 612.08 0 -47.08 158.89 -342.08 0 -46.32 159.1 330.31 0 -47.63 160 -329.55 0 -56.77 195.37 355.51 0 -46.8 162.21 -626.34 0 0.07 -0.01zm1181.58 -685.74l-157.3 535.93 59.54 0c48.12,0 84.53,-10.94 108.9,-32.75 24.16,-21.88 47.63,-70.96 69.99,-147.26l54.49 -190.04c5.33,-18.69 9.69,-36.28 12.46,-52.62 3.05,-16.27 4.57,-30.39 4.57,-42.23 0,-23.54 -7.68,-41.26 -22.64,-53.17 -15.3,-12.05 -38.15,-17.93 -68.96,-17.93l-61.06 0 0.01 0.07zm-470.57 685.74l244.6 -835.56 320.68 0c108.69,0 189.63,17.58 242.52,52.62 52.96,35.17 79.41,88.69 79.41,160.55 0,17.03 -1.52,36.83 -4.57,59.26 -2.77,22.43 -7.62,46.87 -13.98,73.11 -17.58,77.06 -36.42,144.63 -56.77,202.43 -20.35,57.95 -42.02,105.72 -64.87,143.31 -29.77,47.56 -72.07,83.7 -126.76,108 -54.69,24.23 -120.88,36.28 -198.97,36.28l-421.21 0 -0.08 0zm818.95 0l244.6 -835.56 612.08 0 -47.08 158.89 -342.08 0 -46.32 159.1 330.31 0 -47.63 160 -329.55 0 -56.77 195.37 355.51 0 -46.8 162.21 -626.34 0 0.07 -0.01z"/>
   <path class="fil1" d="M4093.46 3189.17l599.34 -2060.49 672.73 0 125.52 695.99c3.18,20.98 11.28,75.81 22.64,163.46 11.91,88.13 27,208.67 45.21,362.15l14.47 0c25.75,-144.28 48.95,-269.45 69.02,-375.38 20.08,-105.51 33.23,-173.08 39.53,-202.78l185.75 -643.44 625.1 0 -603.08 2060.49 -668.99 0 -117.97 -698.21c-16.96,-105.51 -31.36,-204.58 -43.96,-297.77 -11.91,-93.19 -22.57,-181.32 -31.36,-264.4l-25.75 0c-28.87,200.01 -50.82,340.21 -65.22,421.07 -13.85,80.38 -27.62,143.86 -41.4,190.39l-180.14 648.91 -621.29 0 -0.15 0.01z"/>
   <path class="fil1" d="M7172.22 1887.19l-158.13 540.7c-23.26,74.91 -40.15,136.53 -51.44,184.5 -10.66,48.39 -16.34,84.46 -16.34,108.21 0,42.92 17.58,77.19 52.06,103.23 35.17,26.03 81.62,38.84 139.36,38.84 85.36,0 151.2,-23.75 197.03,-71.72 46.45,-47.49 97.27,-168.51 153.76,-363.05l158.13 -537.93c23.26,-74.91 40.15,-136.53 51.44,-184.5 10.66,-48.39 16.34,-84.46 16.34,-108.21 0,-42.92 -18.21,-77.19 -54,-103.23 -36.42,-26.03 -84.12,-38.84 -142.48,-38.84 -84.74,0 -149.33,22.85 -193.92,68.96 -44.59,45.69 -95.4,167.13 -151.9,363.05l0.09 -0.01zm-862.29 817.42c0,-41.12 4.98,-92.22 14.47,-154.32 10.04,-62.1 24.44,-130.64 42.65,-205.48 52.75,-224.66 104.19,-405.49 155.01,-542.99 50.89,-137.43 111.12,-260.31 179.52,-369.42 73.39,-117.35 182.01,-205.97 324.42,-264.88 143.1,-58.92 319.44,-88.13 530.32,-88.13 257.96,0 454.37,46.59 590.55,139.3 136.18,92.7 203.96,227.43 203.96,403.69 0,36.55 -5.05,84.46 -14.4,143.38 -10.04,58.92 -24.51,127.87 -42.65,207.35 -50.19,205.07 -101.7,381.33 -155.01,528.38 -53.38,147.05 -109.8,268.55 -168.16,363.95 -78.44,126.49 -188.93,220.57 -330.1,281.29 -141.86,61.2 -320.68,91.8 -535.93,91.8 -257.89,0 -454.37,-46.11 -590.55,-137.91 -136.18,-91.8 -203.96,-223.76 -203.96,-395.94l-0.14 -0.07z"/>
   <polygon class="fil1" points="8577.91,3189.17 8526.4,1128.68 9166.52,1128.68 9098.12,2643.41 9821.11,1128.68 10521.46,1128.68 9320.91,3189.17 "/>
   <polygon class="fil1" points="11646.9,1128.68 11698.34,3189.17 11058.22,3189.17 11126.62,1674.37 10403.7,3189.17 9703.28,3189.17 10903.83,1128.68 "/>
   <path class="fil0" d="M6496.37 3698.02l-129.88 442.6 49.15 0c39.67,0 69.72,-9 89.93,-27.07 19.94,-18.07 39.32,-58.57 57.74,-121.57l45 -156.88c4.43,-15.44 7.96,-29.98 10.32,-43.41 2.49,-13.43 3.74,-25.06 3.74,-34.89 0,-19.45 -6.3,-34.13 -18.69,-43.89 -12.6,-9.97 -31.5,-14.82 -56.98,-14.82l-50.47 0 0.14 -0.07zm-388.6 566.32l201.95 -689.97 264.81 0c89.72,0 156.6,14.54 200.29,43.41 43.69,29.08 65.56,73.25 65.56,132.58 0,14.05 -1.32,30.46 -3.81,48.95 -2.28,18.48 -6.3,38.7 -11.56,60.44 -14.54,63.62 -30.05,119.43 -46.87,167.13 -16.82,47.84 -34.69,87.3 -53.59,118.39 -24.58,39.32 -59.47,69.09 -104.68,89.17 -45.14,20.08 -99.83,29.98 -164.36,29.98l-347.82 0 0.08 -0.08zm1016.75 -406.46l46.87 0c40.99,0 72.69,-9.21 94.99,-27.55 22.5,-18.35 33.65,-44.38 33.65,-78.16 0,-19.45 -6.72,-34.27 -20.42,-44.79 -13.43,-10.38 -32.75,-15.58 -57.81,-15.58l-49.15 0 -48.12 166.09 -0.01 -0.01zm-340.49 406.46l201.95 -689.97 210.6 0c75.05,0 130.92,3.05 167.06,9 36.35,5.95 66.19,16.06 89.1,30.46 23.33,14.54 40.99,32.26 52.55,52.75 11.77,20.63 17.65,44.52 17.65,71.72 0,53.79 -14.88,96.51 -45,128.29 -30.05,31.78 -75.26,53.03 -135.56,63.9 34.48,6.3 59.89,16.55 75.88,30.6 15.99,14.26 23.95,33.37 23.95,57.19 0,18.21 -5.88,47.56 -17.45,87.79 -11.77,40.36 -17.65,71.45 -17.65,93.26 0,11.01 1.25,20.63 3.74,28.94 2.28,8.24 6.09,15.58 10.94,22.15l0 13.92 -231.37 0c-3.81,-5.33 -6.51,-11.49 -7.96,-18.35 -1.66,-6.92 -2.49,-14.82 -2.49,-23.68 0,-22.15 6.51,-54.9 19.73,-98.45 13.02,-43.41 19.52,-74.98 19.52,-94.36 0,-15.16 -6.72,-27.21 -20.63,-36.21 -13.64,-9 -32.12,-13.43 -55.04,-13.43l-55.52 0 -81.76 284.61 -222.37 0 0.13 -0.13zm1014.39 -436.02l-52.96 181.04c-7.75,25.06 -13.43,45.69 -17.24,61.82 -3.6,16.2 -5.47,28.32 -5.47,36.21 0,14.4 5.88,25.82 17.45,34.55 11.77,8.72 27.28,13.02 46.66,13.02 28.59,0 50.61,-7.96 65.98,-24.02 15.58,-15.92 32.61,-56.42 51.51,-121.57l52.96 -180.14c7.75,-25.06 13.43,-45.76 17.24,-61.82 3.6,-16.2 5.47,-28.25 5.47,-36.21 0,-14.4 -6.09,-25.82 -18.07,-34.55 -12.18,-8.72 -28.18,-13.02 -47.7,-13.02 -28.32,0 -49.99,7.62 -64.94,23.12 -14.88,15.3 -31.92,55.94 -50.82,121.57l-0.07 0zm-288.77 273.74c0,-13.78 1.66,-30.88 4.85,-51.72 3.39,-20.77 8.17,-43.75 14.26,-68.82 17.65,-75.26 34.89,-135.83 51.92,-181.8 17.03,-46.04 37.18,-87.16 60.09,-123.72 24.58,-39.32 60.92,-68.96 108.69,-88.69 47.91,-19.73 106.96,-29.49 177.58,-29.49 86.4,0 152.17,15.58 197.73,46.66 45.62,31.02 68.26,76.16 68.26,135.21 0,12.25 -1.66,28.32 -4.85,48.05 -3.39,19.73 -8.17,42.79 -14.26,69.44 -16.82,68.68 -34.06,127.66 -51.92,176.96 -17.86,49.22 -36.76,89.93 -56.29,121.85 -26.24,42.37 -63.28,73.87 -110.56,94.23 -47.49,20.49 -107.38,30.74 -179.45,30.74 -86.4,0 -152.17,-15.44 -197.73,-46.18 -45.62,-30.74 -68.26,-74.91 -68.26,-132.58l-0.06 -0.14zm1073.45 99.14c-22.71,26.45 -50.89,46.45 -84.53,59.82 -33.58,13.29 -72.9,19.87 -118.11,19.87 -65.77,0 -116.03,-15.16 -150.93,-45.42 -34.89,-30.46 -52.34,-73.87 -52.34,-130.57 0,-14.05 1.45,-31.36 4.64,-51.99 3.18,-20.63 7.96,-44.31 14.47,-71.24 15.99,-68.33 33.02,-127.39 51.09,-176.96 18.07,-49.57 37.18,-90.56 57.19,-122.82 26.24,-42.37 63.28,-73.59 110.56,-93.74 47.49,-20.15 107.59,-30.25 180.7,-30.25 85.36,0 150.51,15.16 195.23,45.28 44.79,30.12 67.02,74.01 67.02,131.54 0,8.72 -0.83,18.83 -2.49,30.25 -1.66,11.49 -4.22,25.06 -8.03,40.5l-209.29 0c3.81,-12.81 6.3,-24.79 7.96,-35.79 1.66,-11.01 2.56,-20.77 2.56,-29.08 0,-17.86 -5.88,-31.99 -17.86,-41.89 -11.98,-9.97 -28.39,-15.02 -49.22,-15.02 -28.39,0 -49.99,7.62 -64.94,23.12 -14.88,15.3 -31.92,55.8 -50.82,121.43l-52.96 180.77 -1.04 3.53c-14.47,51.99 -21.6,83.36 -21.6,94.02 0,15.3 5.05,27.07 15.09,35.17 10.11,8.24 24.16,12.39 42.65,12.39 32.75,0 57.81,-8.58 74.63,-25.69 16.82,-17.31 34.06,-57.81 51.72,-121.71l-81.97 0 33.85 -117 305.38 0 -109.46 374.68 -147.74 0 8.65 -63.14 -0.06 -0.06zm502.69 -188.24l133.69 0 27.49 -330.17 -161.17 330.17 -0.01 0zm-351.63 251.45l407.09 -689.97 267.1 0 8.03 689.97 -216.07 0 9.28 -133.2 -181.6 0 -64.73 133.2 -229.09 0 -0.01 0zm1043.19 -406.46l46.87 0c40.99,0 72.76,-9.21 94.99,-27.55 22.5,-18.35 33.65,-44.38 33.65,-78.16 0,-19.45 -6.72,-34.27 -20.42,-44.79 -13.43,-10.38 -32.75,-15.58 -57.81,-15.58l-49.22 0 -48.12 166.09 0.06 -0.01zm-340.48 406.46l201.95 -689.97 210.6 0c75.05,0 130.92,3.05 167.06,9 36.35,5.95 66.19,16.06 89.1,30.46 23.33,14.54 40.99,32.26 52.55,52.75 11.77,20.63 17.65,44.52 17.65,71.72 0,53.79 -14.95,96.51 -45,128.29 -30.05,31.78 -75.26,53.03 -135.56,63.9 34.48,6.3 59.89,16.55 75.88,30.6 15.99,14.26 23.95,33.37 23.95,57.19 0,18.21 -5.88,47.56 -17.45,87.79 -11.77,40.36 -17.65,71.45 -17.65,93.26 0,11.01 1.25,20.63 3.74,28.94 2.28,8.24 6.09,15.58 10.94,22.15l0 13.92 -231.37 0c-3.81,-5.33 -6.51,-11.49 -8.03,-18.35 -1.66,-6.92 -2.49,-14.82 -2.49,-23.68 0,-22.15 6.51,-54.9 19.73,-98.45 13.02,-43.41 19.52,-74.98 19.52,-94.36 0,-15.16 -6.72,-27.21 -20.56,-36.21 -13.64,-9 -32.12,-13.43 -55.04,-13.43l-55.52 0 -81.76 284.61 -222.37 0 0.13 -0.13zm683.81 0l200.7 -689.97 224.66 0 -201.95 689.97 -223.41 0zm606.06 -251.45l133.62 0 27.55 -330.17 -161.17 330.17zm-351.64 251.45l407.09 -689.97 267.1 0 8.03 689.97 -216.07 0 9.28 -133.2 -181.6 0 -64.73 133.2 -229.09 0 -0.01 0zm718.29 -241.48l202.64 0c0,0.9 0,2.01 0,3.18 -1.66,15.16 -2.56,25.69 -2.56,31.78 0,33.92 7.34,59.06 22.09,74.91 14.95,16.06 37.87,24.02 68.96,24.02 24.79,0 44.31,-6.3 58.85,-18.62 14.47,-12.39 21.88,-29.22 21.88,-50.75 0,-34.41 -33.85,-72.97 -101.49,-115.62 -17.65,-11.35 -31.5,-20.35 -41.19,-26.93 -46.87,-31.64 -81.14,-62.72 -102.53,-93.12 -21.67,-30.46 -32.4,-63 -32.4,-97.76 0,-63.28 25.41,-111.95 76.09,-146.01 50.68,-34.13 123.37,-51.09 218.15,-51.09 86.19,0 151.76,15.92 196.48,47.7 44.79,31.78 67.02,78.58 67.02,140.4 0,10.87 -0.21,19.11 -0.62,24.92 -0.42,5.82 -1.25,11.28 -2.49,16.34l-190.18 0 0 -12.05c0,-35.79 -6.3,-61.48 -18.69,-76.78 -12.6,-15.44 -33.58,-23.12 -63,-23.12 -23.12,0 -40.99,5.33 -54,15.92 -12.81,10.52 -19.32,25.06 -19.32,43.75 0,18.48 6.72,35.65 19.94,51.37 13.43,15.92 42.44,37.8 87.23,65.91 1.45,1.25 3.95,2.77 7.34,4.92 109.53,70.2 164.36,140.54 164.36,211.02 0,69.58 -25.62,122.47 -76.71,158.61 -51.09,36.21 -126.49,54.28 -226.11,54.28 -94.16,0 -164.56,-18.21 -211.64,-54.49 -46.87,-36.21 -70.41,-90.69 -70.41,-163.32 0,-8.1 0.62,-20.15 1.87,-36.21l0.62 -3.18 -0.18 0.02z"/>
   <polygon class="fil1" points="3127.74,3189.17 3727.08,1128.68 4397.94,1128.68 3794.86,3189.17 "/>
   <path class="fil2" d="M690.63 3.24l2078.42 0 0 3379.5c0,381.05 -311.75,692.81 -692.81,692.81l-854.88 0 768.2 -2189.4 -928.2 -325.67c-222.65,-78.09 -468.7,40.15 -546.8,262.74l-516.68 1472.64 0 -2599.88c0,-381.05 311.75,-692.81 692.81,-692.81l-0.06 0.07zm1194.32 204.03c323.11,113.4 493.21,467.25 379.81,790.35 -113.4,323.11 -467.25,493.21 -790.35,379.81 -323.11,-113.4 -493.21,-467.25 -379.81,-790.35 113.4,-323.11 467.25,-493.21 790.35,-379.81z"/>
  </g>
 </g>
</svg>
